HIERARCHY
ROOT Hips
{
	OFFSET 0.00000 0.00000 0.00000
	CHANNELS 6 Xposition Yposition Zposition Zrotation Yrotation Xrotation 
	JOINT LHipJoint
	{
		OFFSET 0 0 0
		CHANNELS 3 Zrotation Yrotation Xrotation
		JOINT LeftHip
		{
			OFFSET 1.38691 -1.89057 0.78360
			CHANNELS 3 Zrotation Yrotation Xrotation
			JOINT LeftKnee
			{
				OFFSET 2.59731 -7.13606 0.00000
				CHANNELS 3 Zrotation Yrotation Xrotation
				JOINT LeftAnkle
				{
					OFFSET 2.70078 -7.42033 0.00000
					CHANNELS 3 Zrotation Yrotation Xrotation
					JOINT LeftToe
					{
						OFFSET 0.16751 -0.46024 2.68862
						CHANNELS 3 Zrotation Yrotation Xrotation
						End Site
						{
							OFFSET 0.00000 -0.00000 1.37057
						}
					}
				}
			}
		}
	}
	JOINT RHipJoint
	{
		OFFSET 0 0 0
		CHANNELS 3 Zrotation Yrotation Xrotation
		JOINT RightHip
		{
			OFFSET -1.38190 -1.89056 0.78359
			CHANNELS 3 Zrotation Yrotation Xrotation
			JOINT RightKnee
			{
				OFFSET -2.57785 -7.08258 0.00000
				CHANNELS 3 Zrotation Yrotation Xrotation
				JOINT RightAnkle
				{
					OFFSET -2.77908 -7.63547 0.00000
					CHANNELS 3 Zrotation Yrotation Xrotation
					JOINT RightToe
					{
						OFFSET -0.17921 -0.49237 2.62360
						CHANNELS 3 Zrotation Yrotation Xrotation
						End Site
						{
							OFFSET -0.00000 -0.00000 1.34085
						}
					}
				}
			}
		}
	}
	JOINT lowerback
	{
		OFFSET 0 0 0
		CHANNELS 3 Zrotation Yrotation Xrotation
		JOINT Chest
		{
			OFFSET -0.10749 2.04110 -0.22549
			CHANNELS 3 Zrotation Yrotation Xrotation
			JOINT Chest2
			{
				OFFSET 0.01213 2.05840 0.00691
				CHANNELS 3 Zrotation Yrotation Xrotation
				JOINT lowerneck
				{
					OFFSET 0 0 0
					CHANNELS 3 Zrotation Yrotation Xrotation
					JOINT Neck
					{
						OFFSET 0.06585 1.81215 0.35449
						CHANNELS 3 Zrotation Yrotation Xrotation
						JOINT Head
						{
							OFFSET -0.04315 1.87555 -0.27307
							CHANNELS 3 Zrotation Yrotation Xrotation
							End Site
							{
								OFFSET -0.01775 1.89740 -0.13294
							}
						}
					}
				}
				JOINT LeftCollar
				{
					OFFSET 0 0 0
					CHANNELS 3 Zrotation Yrotation Xrotation
					JOINT LeftShoulder
					{
						OFFSET 2.98012 1.63606 0.28888
CHANNELS 3 Zrotation Xrotation Yrotation
						JOINT LeftElbow
						{
OFFSET 0 -5.598640 -0.000000
CHANNELS 3 Zrotation Xrotation Yrotation
							JOINT LeftWrist
							{
OFFSET 0 -3.595420 -0.000000
CHANNELS 3 Zrotation Xrotation Yrotation
								JOINT lhand
								{
									OFFSET 0 0 0
CHANNELS 3 Zrotation Xrotation Yrotation
									JOINT LFingers
									{
OFFSET 0 -0.572010 -0.000000
CHANNELS 3 Zrotation Xrotation Yrotation
										End Site
										{
OFFSET 0 -0.461170 -0.000000
										}
									}
								}
								JOINT LThumb
								{
OFFSET 0 0.000000 0.000000
CHANNELS 3 Zrotation Xrotation Yrotation
									End Site
									{
OFFSET 0 -0.468210 0.468210
									}
								}
							}
						}
					}
				}
				JOINT RightCollar
				{
					OFFSET 0 0 0
					CHANNELS 3 Zrotation Yrotation Xrotation
					JOINT RightShoulder
					{
						OFFSET -3.08694 1.53706 0.36335
CHANNELS 3 Zrotation Xrotation Yrotation
						JOINT RightElbow
						{
OFFSET 0 -5.809400 -0.000000
CHANNELS 3 Zrotation Xrotation Yrotation
							JOINT RightWrist
							{
OFFSET 0 -3.669530 -0.000000
CHANNELS 3 Zrotation Xrotation Yrotation
								JOINT rhand
								{
									OFFSET 0 0 0
CHANNELS 3 Zrotation Xrotation Yrotation
									JOINT RFingers
									{
OFFSET 0 -0.578430 -0.000000
CHANNELS 3 Zrotation Xrotation Yrotation
										End Site
										{
OFFSET 0 -0.466350 -0.000000
										}
									}
								}
								JOINT RThumb
								{
OFFSET 0 0.000000 0.000000
CHANNELS 3 Zrotation Xrotation Yrotation
									End Site
									{
OFFSET 0 -0.473470 0.473470
									}
								}
							}
						}
					}
				}
			}
		}
	}
}
MOTION
Frames: 6
Frame Time: 0.008333333333333333
21.741000 19.221700 -21.583100 -6.875800 63.036400 1.980400 0.000000 0.000000 0.000000 -9.709600 -12.357500 -10.978900 6.276500 14.691100 46.081600 6.265900 -7.765800 -46.428000 0.340800 -3.751300 -10.378100 0.000000 0.000000 0.000000 23.287300 1.847300 -28.578100 -5.361400 -13.779600 42.361500 -3.009600 11.665800 -31.321500 -0.863800 5.926500 -16.571200 -5.702400 -3.576700 9.312500 -0.116400 -5.431100 -1.349700 3.832000 -2.467000 -6.124300 -4.262300 -8.180200 -16.152200 6.119700 -12.736400 36.040600 1.046400 -4.864700 16.353100 0.000000 0.000000 0.000000 10.022400 -1.463800 -25.982700 19.854700 -30.466900 5.457500 24.805900 -13.946700 -14.060900 0.000000 0.000000 0.000000 -7.125000 0.000000 0.000000 -2.479800 45.390100 0.023900 0.000000 0.000000 0.000000 -11.704000 22.688500 37.460600 -39.807900 -47.955600 -18.296400 -43.357600 -13.021900 -14.475300 0.000000 0.000000 0.000000 7.125000 0.000000 -0.000000 -10.429800 10.681400 -8.461000
21.747946 19.232706 -21.481459 -6.750905 62.504404 2.053418 0.000000 0.000000 0.000000 -9.804395 -12.224686 -11.062723 6.390791 14.795023 46.527625 6.238988 -7.544767 -46.346459 0.352209 -3.812003 -10.548531 0.000000 0.000000 0.000000 23.251060 1.964343 -28.326665 -5.290933 -13.703327 42.063322 -2.963393 11.595903 -31.070636 -0.902322 6.050925 -16.933034 -5.628946 -3.462442 9.290924 -0.144218 -5.269461 -1.320607 3.739017 -2.391868 -6.105945 -4.298977 -8.148087 -16.208507 6.185436 -12.698549 35.978622 1.085157 -4.846446 16.342261 0.000000 0.000000 0.000000 10.204441 -0.993849 -26.011558 20.170461 -30.843465 5.620280 24.957036 -14.406550 -14.081537 0.000000 0.000000 0.000000 -7.125000 0.000000 0.000000 -2.341986 45.432246 0.024705 0.000000 0.000000 0.000000 -11.835103 22.396731 37.428856 -39.418785 -47.718292 -18.009061 -43.339748 -12.870630 -14.356076 0.000000 0.000000 0.000000 7.125000 0.000000 0.000000 -10.442383 10.839784 -8.437075
21.754892 19.243713 -21.379818 -6.626010 61.972409 2.126435 0.000000 0.000000 0.000000 -9.899191 -12.091871 -11.146545 6.505083 14.898945 46.973651 6.212076 -7.323734 -46.264918 0.363618 -3.872705 -10.718961 0.000000 0.000000 0.000000 23.214819 2.081386 -28.075231 -5.220465 -13.627055 41.765144 -2.917187 11.526006 -30.819772 -0.940844 6.175351 -17.294867 -5.555492 -3.348184 9.269347 -0.172036 -5.107822 -1.291514 3.646033 -2.316737 -6.087590 -4.335653 -8.115974 -16.264814 6.251172 -12.660698 35.916644 1.123914 -4.828191 16.331423 0.000000 0.000000 0.000000 10.386482 -0.523898 -26.040416 20.486223 -31.220029 5.783060 25.108172 -14.866401 -14.102174 0.000000 0.000000 0.000000 -7.125000 0.000000 0.000000 -2.204172 45.474392 0.025511 0.000000 0.000000 0.000000 -11.966206 22.104962 37.397112 -39.029671 -47.480985 -17.721721 -43.321896 -12.719360 -14.236852 0.000000 0.000000 0.000000 7.125000 0.000000 0.000000 -10.454967 10.998168 -8.413149
21.761843 19.254758 -21.278195 -6.502242 61.440416 2.197690 0.000000 0.000000 0.000000 -9.993057 -11.957998 -11.231933 6.620203 15.003468 47.422632 6.184283 -7.109034 -46.179024 0.373979 -3.927503 -10.872848 0.000000 0.000000 0.000000 23.179325 2.197097 -27.821896 -5.149459 -13.550116 41.464516 -2.870785 11.457932 -30.567767 -0.978581 6.297239 -17.649323 -5.481396 -3.233820 9.248974 -0.199727 -4.946034 -1.262302 3.552881 -2.241529 -6.069807 -4.373467 -8.083786 -16.321360 6.317652 -12.622648 35.854952 1.163216 -4.809878 16.320950 0.000000 0.000000 0.000000 10.566065 -0.055380 -26.064858 20.800051 -31.594158 5.944903 25.255571 -15.322056 -14.120197 0.000000 0.000000 0.000000 -7.125000 0.000000 0.000000 -2.069450 45.513206 0.026174 0.000000 0.000000 0.000000 -12.097539 21.813094 37.365111 -38.641023 -47.243770 -17.434786 -43.303167 -12.567810 -14.118057 0.000000 0.000000 0.000000 7.125000 0.000000 0.000000 -10.466900 11.156219 -8.388754
21.769024 19.267745 -21.177460 -6.433989 60.908554 2.182120 0.000000 0.000000 0.000000 -10.041143 -11.771964 -11.394411 6.776103 15.137524 48.017210 6.113077 -7.206212 -45.878732 0.332705 -3.691470 -10.211964 0.000000 0.000000 0.000000 23.180601 2.247196 -27.474995 -5.051912 -13.440354 41.043221 -2.814781 11.479643 -30.259589 -0.977608 6.294186 -17.640431 -5.375695 -3.114227 9.287865 -0.221203 -4.776878 -1.227236 3.451408 -2.162606 -6.080209 -4.467289 -8.047915 -16.389679 6.420769 -12.574831 35.807337 1.229355 -4.788671 16.328466 0.000000 0.000000 0.000000 10.624620 0.342593 -25.871777 21.018667 -31.848345 6.060638 25.218928 -15.571074 -14.009496 0.000000 0.000000 0.000000 -7.125000 0.000000 0.000000 -2.087033 45.387874 0.019832 0.000000 0.000000 0.000000 -12.240185 21.516326 37.320448 -38.275364 -47.011127 -17.167782 -43.241189 -12.402480 -14.020443 0.000000 0.000000 0.000000 7.125000 0.000000 0.000000 -10.446800 11.297892 -8.341205
21.776205 19.280731 -21.076726 -6.365736 60.376693 2.166550 0.000000 0.000000 0.000000 -10.089228 -11.585930 -11.556889 6.932004 15.271580 48.611787 6.041872 -7.303390 -45.578440 0.291431 -3.455438 -9.551080 0.000000 0.000000 0.000000 23.181876 2.297295 -27.128094 -4.954365 -13.330593 40.621927 -2.758776 11.501353 -29.951412 -0.976634 6.291132 -17.631538 -5.269994 -2.994633 9.326757 -0.242679 -4.607723 -1.192170 3.349934 -2.083682 -6.090612 -4.561112 -8.012044 -16.457999 6.523887 -12.527014 35.759721 1.295494 -4.767463 16.335983 0.000000 0.000000 0.000000 10.683175 0.740566 -25.678696 21.237284 -32.102531 6.176372 25.182285 -15.820093 -13.898795 0.000000 0.000000 0.000000 -7.125000 0.000000 0.000000 -2.104617 45.262543 0.013490 0.000000 0.000000 0.000000 -12.382831 21.219557 37.275785 -37.909705 -46.778484 -16.900777 -43.179211 -12.237150 -13.922829 0.000000 0.000000 0.000000 7.125000 0.000000 0.000000 -10.426700 11.439566 -8.293656
